C:\GBW_MyPrograms\KinderuniversiteitApp\Resultaten\Ellis\Olaf\Olaf_v2.mot
version=1
nRows=9
nColumns=29
inDegrees=yes
endheader
                time	         pelvis_tilt	           pelvis_tx	           pelvis_ty	       hip_flexion_l	       hip_flexion_r	        knee_angle_l	        knee_angle_r	       ankle_angle_l	       ankle_angle_r	    lumbar_extension	hamstrings_r/activation	bifemsh_r/activation	glut_max_r/activation	iliopsoas_r/activation	rect_fem_r/activation	  vasti_r/activation	gastroc_r/activation	 soleus_r/activation	tib_ant_r/activation	hamstrings_l/activation	bifemsh_l/activation	glut_max_l/activation	iliopsoas_l/activation	rect_fem_l/activation	  vasti_l/activation	gastroc_l/activation	 soleus_l/activation	tib_ant_l/activation	
          0.71361680	        -10.40571002	          0.87952510	          0.90155752	          6.84351395	         31.89076307	        -10.46155909	        -11.96305336	         17.31556608	         -9.67694477	         -6.80122781	          0.90962248	          0.60344382	          0.87525058	          0.28986878	          0.33134170	          0.46158569	          0.53771331	          0.17486646	          0.37103149	          0.90864806	          0.89391316	          0.20310407	          0.90249460	          0.16301024	          0.09486003	          0.93836487	          0.80159397	          0.33749715	
          0.72075297	        -10.46023535	          0.89167994	          0.89998732	          6.92936428	         30.89512049	        -11.87947714	         -9.43605251	         18.02948830	        -11.07853993	         -6.32726850	          0.91197933	          0.56989512	          0.88215576	          0.27249112	          0.31587462	          0.59380166	          0.49365636	          0.16942050	          0.42963271	          0.90874790	          0.89869176	          0.18844070	          0.91452581	          0.16016681	          0.08902875	          0.94532576	          0.85240736	          0.31162377	
          0.72788914	        -10.46639446	          0.90368662	          0.89895252	          7.02218179	         29.86504356	        -13.44131891	         -7.35218500	         18.76719006	        -11.86670927	         -5.88478296	          0.90982062	          0.53472474	          0.88552073	          0.25728647	          0.30288565	          0.69658710	          0.45219593	          0.16234443	          0.58711680	          0.90731448	          0.90273701	          0.17528526	          0.92321943	          0.15812847	          0.08412797	          0.94985375	          0.88729141	          0.28812269	
          0.73502531	        -10.42629599	          0.91558863	          0.89828569	          7.12463237	         28.82725062	        -15.12622722	         -5.88579001	         19.43611685	        -11.73192046	         -5.48076415	          0.90715601	          0.50569314	          0.88823963	          0.24380934	          0.29116116	          0.76388277	          0.41261976	          0.15416716	          0.70215581	          0.90513068	          0.90582866	          0.16367267	          0.92881387	          0.15671503	          0.08031915	          0.95254389	          0.91084295	          0.26679771	
          0.74216148	        -10.34668487	          0.92736222	          0.89704378	          7.24808338	         27.80503544	        -16.91665370	         -5.12739972	         19.96171780	        -10.86249670	         -5.12014462	          0.89206516	          0.47368731	          0.89113784	          0.23246736	          0.28901968	          0.81497658	          0.39069946	          0.35446640	          0.64342892	          0.89731174	          0.90797098	          0.15337806	          0.93299457	          0.15676707	          0.07773514	          0.95205352	          0.92481999	          0.24734575	
          0.74929764	        -10.22798408	          0.93888946	          0.89541317	          7.41483098	         26.77137797	        -18.83273997	         -4.91274524	         20.35886707	         -9.16142231	         -4.82951617	          0.89610412	          0.45218029	          0.89281070	          0.22322705	          0.27807428	          0.83906326	          0.36613911	          0.33250687	          0.73999413	          0.86506989	          0.90905524	          0.14451982	          0.93442755	          0.15738699	          0.07638876	          0.95063408	          0.93360640	          0.23003303	
          0.75643381	        -10.07345918	          0.94994317	          0.89418578	          7.67424187	         25.72062544	        -20.92248321	         -4.70770057	         20.55417664	         -7.41954554	         -4.64807753	          0.89520326	          0.44098641	          0.89067194	          0.21645690	          0.26950056	          0.84326896	          0.34195694	          0.30981106	          0.79373963	          0.79286716	          0.90951822	          0.13673673	          0.93594581	          0.16006795	          0.07605609	          0.94851368	          0.94115501	          0.21480145	
          0.76356998	         -9.90366685	          0.96029965	          0.89365216	          8.09005379	         24.74944553	        -23.20898749	         -4.55839438	         20.39613729	         -5.95361967	         -4.59076115	          0.89439262	          0.43374199	          0.88971432	          0.21118406	          0.26247197	          0.84503730	          0.32073603	          0.29029431	          0.82899316	          0.72611472	          0.90948926	          0.13015826	          0.93661301	          0.16461287	          0.07634115	          0.94608972	          0.94276825	          0.20099216	
          0.77070615	         -9.72765484	          0.96992043	          0.89388151	          8.67452007	         23.89145597	        -25.66976357	         -4.51177873	         19.81023500	         -4.72249049	         -4.65459153	          0.89208213	          0.42965243	          0.88835400	          0.20739077	          0.25722384	          0.84535933	          0.30211800	          0.27342277	          0.85117215	          0.66504390	          0.90899157	          0.12482586	          0.93697701	          0.17280547	          0.07687386	          0.94219492	          0.93874875	          0.18855620	
